<svg id="visual" viewBox="0 0 1024 768" width="1024" height="768" xmlns="http://www.w3.org/2000/svg" xmlns:xlink="http://www.w3.org/1999/xlink" version="1.1"><rect width="1024" height="768" fill="#7FDBDA"></rect><g><g transform="translate(857 541)"><path d="M124.3 -40.7C137.6 0.7 108.8 55.4 67.6 83C26.3 110.7 -27.4 111.2 -63.1 85.5C-98.8 59.9 -116.4 8.2 -102.9 -33.4C-89.4 -75 -44.7 -106.5 5.4 -108.2C55.5 -110 110.9 -82 124.3 -40.7Z" stroke="#FEBF63" fill="none" stroke-width="10"></path></g><g transform="translate(571 91)"><path d="M60.2 -21.3C67.6 3.2 56 32.1 34.5 47.8C13 63.5 -18.4 66 -38.9 51.6C-59.4 37.1 -69 5.8 -60.7 -19.9C-52.4 -45.6 -26.2 -65.7 0.1 -65.7C26.4 -65.7 52.8 -45.7 60.2 -21.3Z" stroke="#FEBF63" fill="none" stroke-width="10"></path></g><g transform="translate(111 523)"><path d="M62.2 -20C69.8 3.3 57.7 33.1 35.5 49.3C13.3 65.5 -19 68.2 -39.6 53.5C-60.1 38.8 -68.8 6.8 -60.3 -17.7C-51.7 -42.2 -25.8 -59.3 0.7 -59.5C27.3 -59.8 54.5 -43.2 62.2 -20Z" stroke="#FEBF63" fill="none" stroke-width="10"></path></g><g transform="translate(27 136)"><path d="M109.1 -32.2C123.6 9.2 105.3 64.6 68 91.1C30.6 117.7 -25.9 115.6 -61.6 88.7C-97.3 61.8 -112.2 10.3 -98.5 -30.1C-84.8 -70.5 -42.4 -99.8 2.5 -100.6C47.3 -101.4 94.6 -73.7 109.1 -32.2Z" stroke="#FEBF63" fill="none" stroke-width="10"></path></g><g transform="translate(541 707)"><path d="M83.5 -28.5C95.6 10.1 84.1 55 54.9 76.4C25.7 97.8 -21.1 95.7 -51.3 73.2C-81.5 50.6 -95 7.7 -83.7 -29.8C-72.4 -67.3 -36.2 -99.4 -0.2 -99.3C35.7 -99.3 71.4 -67 83.5 -28.5Z" stroke="#FEBF63" fill="none" stroke-width="10"></path></g><g transform="translate(993 73)"><path d="M86.9 -25.5C99.7 11.2 88.3 58.6 57.1 82.1C25.9 105.6 -25.2 105.3 -59.7 80.5C-94.2 55.8 -112.2 6.8 -99.5 -29.8C-86.8 -66.4 -43.4 -90.5 -3.2 -89.4C37 -88.4 74.1 -62.2 86.9 -25.5Z" stroke="#FEBF63" fill="none" stroke-width="10"></path></g></g></svg>
