<svg id="visual" viewBox="0 0 1024 768" width="1024" height="768" xmlns="http://www.w3.org/2000/svg" xmlns:xlink="http://www.w3.org/1999/xlink" version="1.1"><rect width="1024" height="768" fill="#7FDBDA"></rect><g><g transform="translate(643 754)"><path d="M124.7 -41C138.7 2.7 111.5 59.4 70.2 87.1C28.9 114.9 -26.4 113.7 -62 87.4C-97.5 61.1 -113.3 9.6 -99.6 -33.5C-86 -76.6 -43 -111.4 6.2 -113.4C55.3 -115.4 110.6 -84.6 124.7 -41Z" stroke="#EDE682" fill="none" stroke-width="10"></path></g><g transform="translate(627 127)"><path d="M95.5 -31.2C107.4 5.6 89.4 52 54.8 77.7C20.1 103.4 -31.2 108.5 -66.5 84.6C-101.8 60.6 -120.9 7.5 -107.2 -31.8C-93.4 -71.1 -46.7 -96.7 -2.5 -95.9C41.8 -95.1 83.6 -67.9 95.5 -31.2Z" stroke="#EDE682" fill="none" stroke-width="10"></path></g><g transform="translate(81 181)"><path d="M74.6 -23.4C83.1 2 67.1 36.2 42.6 52.6C18.2 68.9 -14.9 67.4 -37.3 51.2C-59.8 34.9 -71.6 3.9 -63.7 -20.8C-55.7 -45.5 -27.8 -63.8 2.6 -64.7C33 -65.5 66 -48.8 74.6 -23.4Z" stroke="#EDE682" fill="none" stroke-width="10"></path></g><g transform="translate(1002 52)"><path d="M90.1 -31C102.4 8.4 88 54.8 56.2 78.1C24.4 101.3 -24.7 101.5 -55.9 78.4C-87.1 55.4 -100.4 9.2 -88.1 -30.3C-75.8 -69.8 -37.9 -102.7 0.5 -102.9C38.9 -103 77.9 -70.5 90.1 -31Z" stroke="#EDE682" fill="none" stroke-width="10"></path></g><g transform="translate(23 550)"><path d="M68.7 -22.6C76.6 2.1 62.1 33.8 38.6 50.2C15.1 66.7 -17.5 67.8 -39.9 52.1C-62.3 36.5 -74.6 4.1 -66.3 -21.1C-58 -46.4 -29 -64.5 0.7 -64.8C30.4 -65 60.7 -47.3 68.7 -22.6Z" stroke="#EDE682" fill="none" stroke-width="10"></path></g><g transform="translate(977 457)"><path d="M91.2 -30.2C102.7 5.7 85.8 50.3 53.2 74.2C20.6 98.1 -27.7 101.4 -58.1 79.5C-88.4 57.6 -100.7 10.4 -88 -27.1C-75.4 -64.6 -37.7 -92.6 1.1 -92.9C39.9 -93.3 79.8 -66.1 91.2 -30.2Z" stroke="#EDE682" fill="none" stroke-width="10"></path></g></g></svg>