<svg id="visual" viewBox="0 0 1024 768" width="1024" height="768" xmlns="http://www.w3.org/2000/svg" xmlns:xlink="http://www.w3.org/1999/xlink" version="1.1"><rect width="1024" height="768" fill="#7FDBDA"></rect><g><g transform="translate(650 701)"><path d="M82.3 -79C106.5 -58.2 125.7 -29.1 127.7 2C129.7 33.1 114.4 66.1 90.3 91.4C66.1 116.7 33.1 134.2 -1.7 136C-36.5 137.7 -73 123.6 -99 98.3C-125 73 -140.5 36.5 -137.2 3.3C-134 -30 -112 -59.9 -85.9 -80.8C-59.9 -101.7 -30 -113.4 -0.4 -112.9C29.1 -112.5 58.2 -99.9 82.3 -79Z" fill="none" stroke="#ADE498" stroke-width="20"></path></g><g transform="translate(457 219)"><path d="M72.8 -76.7C88.4 -57.2 90.9 -28.6 87.7 -3.2C84.5 22.3 75.7 44.6 60.1 63.6C44.6 82.6 22.3 98.3 -1.5 99.8C-25.2 101.3 -50.4 88.5 -67.9 69.5C-85.4 50.4 -95.2 25.2 -93.8 1.5C-92.3 -22.3 -79.6 -44.6 -62.1 -64.1C-44.6 -83.6 -22.3 -100.3 3.1 -103.4C28.6 -106.6 57.2 -96.2 72.8 -76.7Z" fill="none" stroke="#ADE498" stroke-width="20"></path></g><g transform="translate(894 493)"><path d="M47.4 -46.8C60.7 -34.1 70.3 -17 69.7 -0.6C69.1 15.8 58.3 31.7 45 43.8C31.7 55.9 15.8 64.4 -1.4 65.8C-18.6 67.2 -37.2 61.5 -51.7 49.4C-66.2 37.2 -76.5 18.6 -77.1 -0.6C-77.7 -19.8 -68.5 -39.5 -54 -52.2C-39.5 -65 -19.8 -70.6 -1.4 -69.2C17 -67.9 34.1 -59.5 47.4 -46.8Z" fill="none" stroke="#ADE498" stroke-width="20"></path></g><g transform="translate(298 556)"><path d="M79.9 -76.7C101.2 -58.6 114.5 -29.3 114.7 0.2C115 29.8 102.1 59.5 80.8 79.2C59.5 98.9 29.8 108.5 2.4 106.1C-24.9 103.7 -49.9 89.2 -72.5 69.6C-95 49.9 -115.3 24.9 -117.1 -1.8C-119 -28.6 -102.4 -57.2 -79.8 -75.3C-57.2 -93.4 -28.6 -100.9 0.4 -101.3C29.3 -101.7 58.6 -94.8 79.9 -76.7Z" stroke="#ADE498" fill="none" stroke-width="20"></path></g><g transform="translate(5 134)"><path d="M38.3 -37.5C47.4 -29.1 51.1 -14.6 50.5 -0.6C49.9 13.3 45 26.7 35.8 35.5C26.7 44.3 13.3 48.5 -0.4 48.9C-14.1 49.3 -28.2 45.8 -37.1 37C-46.1 28.2 -49.8 14.1 -48.6 1.3C-47.3 -11.6 -41 -23.1 -32 -31.4C-23.1 -39.7 -11.6 -44.8 1.5 -46.3C14.6 -47.8 29.1 -45.8 38.3 -37.5Z" stroke="#ADE498" fill="none" stroke-width="20"></path></g><g transform="translate(918 105)"><path d="M21.7 -21.5C27.3 -16.1 30.5 -8 30.1 -0.4C29.6 7.1 25.5 14.3 19.9 20.2C14.3 26.1 7.1 30.7 -0.1 30.8C-7.2 30.8 -14.5 26.3 -19.1 20.4C-23.8 14.5 -25.8 7.2 -26.1 -0.3C-26.4 -7.8 -24.9 -15.6 -20.2 -21C-15.6 -26.5 -7.8 -29.6 0.1 -29.7C8 -29.9 16.1 -27 21.7 -21.5Z" stroke="#ADE498" fill="none" stroke-width="20"></path></g><g transform="translate(11 726)"><path d="M16.6 -15.7C21.2 -12 24.5 -6 24.5 0.1C24.6 6.1 21.5 12.3 16.9 16.6C12.3 21 6.1 23.6 0.3 23.3C-5.5 23 -11 19.8 -14.9 15.4C-18.8 11 -21.2 5.5 -21.4 -0.3C-21.7 -6.1 -20 -12.1 -16.1 -15.9C-12.1 -19.7 -6.1 -21.2 0 -21.1C6 -21.1 12 -19.5 16.6 -15.7Z" stroke="#ADE498" fill="none" stroke-width="20"></path></g></g></svg>