<svg id="visual" viewBox="0 0 1024 768" width="1024" height="768" xmlns="http://www.w3.org/2000/svg" xmlns:xlink="http://www.w3.org/1999/xlink" version="1.1"><rect width="1024" height="768" fill="#7FDBDA"></rect><g><g transform="translate(365 484)"><path d="M111.5 -33.2C126.6 10.2 108.6 67.4 69.8 95.4C31.1 123.4 -28.4 122.2 -66 94.1C-103.6 66.1 -119.3 11.1 -104.7 -31.7C-90 -74.5 -45 -105.2 1.6 -105.7C48.2 -106.2 96.4 -76.6 111.5 -33.2Z" stroke="#EDE682" fill="none" stroke-width="10"></path></g><g transform="translate(170 91)"><path d="M73.2 -22.6C83.2 7.2 71.9 45.2 45.2 65.3C18.6 85.3 -23.2 87.4 -48.7 68.5C-74.1 49.6 -83.3 9.8 -72.4 -21.1C-61.6 -51.9 -30.8 -73.9 0.4 -74C31.5 -74.1 63.1 -52.4 73.2 -22.6Z" stroke="#EDE682" fill="none" stroke-width="10"></path></g><g transform="translate(744 356)"><path d="M59.1 -19.8C67.3 6.2 58.4 37.1 36.5 53.9C14.6 70.7 -20.3 73.3 -44.2 56.8C-68.2 40.3 -81.3 4.8 -72.1 -22.5C-63 -49.8 -31.5 -68.8 -3 -67.8C25.4 -66.9 50.9 -45.8 59.1 -19.8Z" stroke="#EDE682" fill="none" stroke-width="10"></path></g><g transform="translate(2 539)"><path d="M65.1 -22C72.5 1.5 58.3 31.1 36.3 46.2C14.2 61.4 -15.7 62 -35.9 47.7C-56.2 33.4 -66.8 4.1 -59.2 -19.6C-51.6 -43.4 -25.8 -61.7 1.5 -62.2C28.9 -62.7 57.8 -45.4 65.1 -22Z" stroke="#EDE682" fill="none" stroke-width="10"></path></g><g transform="translate(643 719)"><path d="M52 -17.4C59.8 6.9 53.1 35.4 33.3 50.9C13.6 66.5 -19.3 69.1 -40.8 54C-62.3 38.9 -72.4 6 -63.7 -19.6C-55 -45.3 -27.5 -63.7 -2.7 -62.9C22.1 -62 44.3 -41.8 52 -17.4Z" stroke="#EDE682" fill="none" stroke-width="10"></path></g><g transform="translate(952 63)"><path d="M83.1 -28C93.2 3.9 76.8 43.5 47.2 65C17.6 86.6 -25.2 90.1 -52.8 70.6C-80.4 51 -92.8 8.4 -81.4 -25.3C-70.1 -59 -35 -83.9 0.8 -84.1C36.5 -84.4 73.1 -60 83.1 -28Z" stroke="#EDE682" fill="none" stroke-width="10"></path></g></g></svg>