<svg id="visual" viewBox="0 0 1024 768" width="1024" height="768" xmlns="http://www.w3.org/2000/svg" xmlns:xlink="http://www.w3.org/1999/xlink" version="1.1"><rect width="1024" height="768" fill="#7FDBDA"></rect><g><g transform="translate(465 392)"><path d="M107.7 -36.6C122.9 12 107.3 69 68.7 97.9C30.1 126.7 -31.5 127.4 -70.8 98.6C-110 69.8 -127 11.5 -111.5 -37.4C-96 -86.3 -48 -125.8 -0.9 -125.5C46.2 -125.2 92.4 -85.1 107.7 -36.6Z" stroke="#EDE682" fill="none" stroke-width="10"></path></g><g transform="translate(10 299)"><path d="M67 -22.4C74.8 2.3 60.9 33.4 37.3 50.3C13.7 67.2 -19.4 69.8 -40.2 54.8C-61 39.8 -69.4 7.3 -60.7 -18.7C-51.9 -44.6 -26 -64 1.8 -64.6C29.6 -65.2 59.2 -47 67 -22.4Z" stroke="#EDE682" fill="none" stroke-width="10"></path></g><g transform="translate(913 530)"><path d="M78.1 -23.7C89.5 9.9 79.1 52.2 52.5 71.2C25.9 90.3 -16.8 86.1 -44.1 65.2C-71.4 44.3 -83.3 6.7 -73.3 -24.8C-63.4 -56.2 -31.7 -81.5 0.8 -81.8C33.3 -82.1 66.6 -57.3 78.1 -23.7Z" stroke="#EDE682" fill="none" stroke-width="10"></path></g><g transform="translate(170 715)"><path d="M67.1 -25.7C76.4 6.6 65.9 41.5 41.4 60C16.9 78.5 -21.6 80.6 -49 62C-76.5 43.4 -92.8 3.9 -82.8 -29.5C-72.8 -62.9 -36.4 -90.4 -3.7 -89.2C28.9 -88 57.9 -58.1 67.1 -25.7Z" stroke="#EDE682" fill="none" stroke-width="10"></path></g><g transform="translate(903 102)"><path d="M85.5 -29.2C96.7 6.8 82.1 49.8 53.9 69.2C25.6 88.5 -16.2 84.1 -43.9 63.3C-71.6 42.5 -85.2 5.2 -75.6 -28.7C-65.9 -62.5 -33 -92.9 2.1 -93.5C37.1 -94.2 74.2 -65.2 85.5 -29.2Z" stroke="#EDE682" fill="none" stroke-width="10"></path></g><g transform="translate(487 9)"><path d="M110.2 -32.9C124.9 9.5 106.7 65.6 68.6 92.8C30.6 120 -27.1 118.4 -63.4 91.1C-99.6 63.9 -114.4 11 -100.2 -30.7C-86.1 -72.3 -43 -102.6 2.4 -103.3C47.7 -104.1 95.5 -75.3 110.2 -32.9Z" stroke="#EDE682" fill="none" stroke-width="10"></path></g></g></svg>